simulation
nRows=25
nColumns=15
endheader
time  TH_x TH_y TH_z SC_y  SC_z  SC_x  AC_y  AC_z  AC_x  GH_y  GH_z  GH_yy  EL_x  PS_y
0.000000  0.000000  0.000000  0.000000  -32.870551  -0.169524  1.921990  44.522396  9.721180  -3.105302  -1.135598  -3.232697  26.503906  24.372637  0.000000
0.010000  0.000000  0.000000  0.000000  -32.874743  -0.231434  1.831943  44.643853  9.380605  -3.173477  -1.414865  -2.523749  26.174183  24.355862  0.000000
0.020000  0.000000  0.000000  0.000000  -32.880419  -0.288608  1.750858  44.760471  9.058356  -3.239087  -1.682201  -1.815162  25.845915  24.338143  0.000000
0.030000  0.000000  0.000000  0.000000  -32.887548  -0.341139  1.678546  44.872330  8.754098  -3.302165  -1.937818  -1.107067  25.519108  24.319505  0.000000
0.040000  0.000000  0.000000  0.000000  -32.896098  -0.389121  1.614819  44.979509  8.467499  -3.362746  -2.181928  -0.399595  25.193765  24.299978  0.000000
0.050000  0.000000  0.000000  0.000000  -32.906037  -0.432645  1.559490  45.082086  8.198229  -3.420863  -2.414741  0.307127  24.869891  24.279587  0.000000
0.060000  0.000000  0.000000  0.000000  -32.917334  -0.471805  1.512375  45.180140  7.945960  -3.476548  -2.636466  1.012970  24.547488  24.258360  0.000000
0.070000  0.000000  0.000000  0.000000  -32.929957  -0.506691  1.473289  45.273747  7.710366  -3.529836  -2.847310  1.717809  24.226562  24.236323  0.000000
0.080000  0.000000  0.000000  0.000000  -32.943876  -0.537394  1.442051  45.362985  7.491126  -3.580759  -3.047479  2.421517  23.907116  24.213504  0.000000
0.090000  0.000000  0.000000  0.000000  -32.959059  -0.564004  1.418480  45.447930  7.287917  -3.629349  -3.237177  3.123972  23.589154  24.189928  0.000000
0.100000  0.000000  0.000000  0.000000  -32.975476  -0.586609  1.402396  45.528658  7.100423  -3.675641  -3.416606  3.825049  23.272682  24.165622  0.000000
0.110000  0.000000  0.000000  0.000000  -32.993097  -0.605299  1.393621  45.605243  6.928327  -3.719665  -3.585969  4.524628  22.957703  24.140610  0.000000
0.120000  0.000000  0.000000  0.000000  -33.011892  -0.620161  1.391980  45.677762  6.771315  -3.761455  -3.745463  5.222589  22.644221  24.114919  0.000000
0.130000  0.000000  0.000000  0.000000  -33.031830  -0.631283  1.397296  45.746289  6.629076  -3.801043  -3.895289  5.918811  22.332241  24.088574  0.000000
0.140000  0.000000  0.000000  0.000000  -33.052882  -0.638750  1.409397  45.810896  6.501302  -3.838460  -4.035641  6.613177  22.021768  24.061600  0.000000
0.150000  0.000000  0.000000  0.000000  -33.075018  -0.642649  1.428110  45.871658  6.387685  -3.873739  -4.166716  7.305570  21.712806  24.034022  0.000000
0.160000  0.000000  0.000000  0.000000  -33.098210  -0.643065  1.453265  45.928647  6.287922  -3.906911  -4.288707  7.995874  21.405360  24.005864  0.000000
0.170000  0.000000  0.000000  0.000000  -33.122427  -0.640081  1.484691  45.981935  6.201710  -3.938008  -4.401807  8.683975  21.099434  23.977150  0.000000
0.180000  0.000000  0.000000  0.000000  -33.147642  -0.633782  1.522222  46.031595  6.128751  -3.967062  -4.506205  9.369759  20.795034  23.947906  0.000000
0.190000  0.000000  0.000000  0.000000  -33.173826  -0.624251  1.565691  46.077697  6.068746  -3.994103  -4.602092  10.053115  20.492164  23.918154  0.000000
0.200000  0.000000  0.000000  0.000000  -33.200950  -0.611570  1.614933  46.120312  6.021401  -4.019164  -4.689653  10.733931  20.190829  23.887918  0.000000
0.210000  0.000000  0.000000  0.000000  -33.228987  -0.595821  1.669784  46.159510  5.986424  -4.042274  -4.769077  11.412098  19.891033  23.857222  0.000000
0.220000  0.000000  0.000000  0.000000  -33.257907  -0.577084  1.730083  46.195361  5.963524  -4.063464  -4.840547  12.087506  19.592783  23.826088  0.000000
0.230000  0.000000  0.000000  0.000000  -33.287685  -0.555441  1.795667  46.227934  5.952413  -4.082766  -4.904247  12.760049  19.296082  23.794540  0.000000
0.240000  0.000000  0.000000  0.000000  -33.318291  -0.530970  1.866379  46.257297  5.952806  -4.100210  -4.960358  13.429621  19.000937  23.762601  0.000000
